<svg width="52" height="52" viewBox="0 0 52 52" fill="none" xmlns="http://www.w3.org/2000/svg">
<rect y="0.000976562" width="52" height="52" rx="26" fill="white"/>
<path d="M26 36.001C31.5228 36.001 36 31.5238 36 26.001C36 20.4781 31.5228 16.001 26 16.001C20.4772 16.001 16 20.4781 16 26.001C16 31.5238 20.4772 36.001 26 36.001Z" stroke="#0B0D14" stroke-width="1.8" stroke-linecap="round" stroke-linejoin="round"/>
<path d="M16 26.001H36" stroke="#0B0D14" stroke-width="1.8" stroke-linecap="round" stroke-linejoin="round"/>
<path d="M26 16.001C28.5013 18.7393 29.9228 22.293 30 26.001C29.9228 29.7089 28.5013 33.2626 26 36.001C23.4987 33.2626 22.0772 29.7089 22 26.001C22.0772 22.293 23.4987 18.7393 26 16.001Z" stroke="#0B0D14" stroke-width="1.8" stroke-linecap="round" stroke-linejoin="round"/>
</svg>
